<svg xmlns="http://www.w3.org/2000/svg" width="1024" height="1024" viewBox="0 0 1024 1024" fill="none">
  <rect x="84" y="84" width="856" height="856" rx="206" fill="#E4ECF5"/>
  <rect x="90" y="90" width="844" height="844" rx="200" stroke="#FFFFFF" stroke-opacity="0.76" stroke-width="10"/>
  <path d="M128 196C128 150.72 164.72 114 210 114H814C859.28 114 896 150.72 896 196V430H128V196Z" fill="#FFFFFF" fill-opacity="0.4"/>
  <path d="M174 770C252 836 370 874 512 874C654 874 772 836 850 770V894H174V770Z" fill="#CBD7E5" fill-opacity="0.58"/>

  <g transform="translate(512 522) rotate(-28)">
    <rect x="-236" y="-258" width="472" height="132" rx="58" fill="#C7D2E1"/>
    <rect x="-220" y="-242" width="440" height="100" rx="48" stroke="#ECF2FA" stroke-width="8"/>
    <path d="M-236 -244C-306 -216 -340 -180 -348 -132C-302 -118 -257 -125 -212 -155Z" fill="#B6C4D7"/>
    <path d="M236 -240C286 -222 324 -188 330 -136C284 -120 240 -126 198 -154Z" fill="#1A9695"/>

    <rect x="-44" y="-140" width="88" height="430" rx="40" fill="#3E4E63"/>
    <rect x="-14" y="-122" width="20" height="392" rx="10" fill="#8FA3BE" fill-opacity="0.4"/>
    <ellipse cx="0" cy="300" rx="58" ry="54" fill="#273240"/>
    <ellipse cx="0" cy="296" rx="38" ry="32" fill="#5A6D86"/>

    <path d="M-44 56C-16 68 16 68 44 56" stroke="#202B3A" stroke-opacity="0.55" stroke-width="7" stroke-linecap="round"/>
    <path d="M-44 148C-16 160 16 160 44 148" stroke="#202B3A" stroke-opacity="0.55" stroke-width="7" stroke-linecap="round"/>
    <path d="M-44 236C-16 248 16 248 44 236" stroke="#202B3A" stroke-opacity="0.55" stroke-width="7" stroke-linecap="round"/>
  </g>

  <circle cx="770" cy="770" r="84" fill="#FFFFFF" fill-opacity="0.2"/>
</svg>
